<svg width="122" height="19" viewBox="0 0 122 19" fill="none" xmlns="http://www.w3.org/2000/svg">
<g id="Business">
<path d="M0.0330811 17.7345V1.62787H11.9431C12.8027 1.62787 13.5764 1.7998 14.2641 2.14365C14.9518 2.47188 15.4911 2.93296 15.8818 3.5269C16.2882 4.12084 16.4914 4.81637 16.4914 5.61349C16.4914 6.25432 16.3663 6.82481 16.1163 7.32497C15.8818 7.82512 15.5614 8.23932 15.155 8.56754C14.7486 8.89577 14.2954 9.13804 13.7952 9.29434V9.38811C14.3892 9.51315 14.9206 9.7476 15.3895 10.0915C15.874 10.4353 16.2491 10.8808 16.5148 11.4278C16.7962 11.9592 16.9368 12.5922 16.9368 13.3269C16.9368 14.2959 16.7102 15.1087 16.2569 15.7651C15.8193 16.4216 15.2253 16.9139 14.4751 17.2421C13.7249 17.5704 12.8887 17.7345 11.9665 17.7345H0.0330811ZM3.94837 14.6632H11.0053C11.5523 14.6632 12.0056 14.5147 12.3651 14.2178C12.7246 13.9208 12.9043 13.4519 12.9043 12.8111C12.9043 12.4672 12.8262 12.1546 12.6699 11.8733C12.5292 11.5919 12.3104 11.3809 12.0134 11.2403C11.7164 11.084 11.3335 11.0058 10.8646 11.0058H3.94837V14.6632ZM3.94837 8.0752H10.5833C10.9896 8.0752 11.3335 8.00487 11.6148 7.8642C11.8962 7.7079 12.1072 7.50471 12.2479 7.25463C12.4042 6.98892 12.4823 6.69196 12.4823 6.36373C12.4823 5.80105 12.3182 5.37904 11.99 5.09771C11.6617 4.80074 11.2319 4.65225 10.7005 4.65225H3.94837V8.0752Z" fill="#0D0B1A"/>
<path d="M24.9872 18.0158C23.3461 18.0158 22.0957 17.6173 21.236 16.8201C20.392 16.023 19.97 14.7882 19.97 13.1158V5.37904H23.5336V12.5532C23.5336 13.0221 23.5961 13.4206 23.7212 13.7489C23.8619 14.0771 24.0494 14.3428 24.2839 14.546C24.5183 14.7492 24.8075 14.8977 25.1513 14.9914C25.4952 15.0852 25.8703 15.1321 26.2767 15.1321C26.9019 15.1321 27.4724 15.0071 27.9881 14.757C28.5196 14.4913 28.9416 14.1318 29.2542 13.6785C29.5668 13.2096 29.7231 12.6704 29.7231 12.0608V5.37904H33.3101V17.7345H30.403L30.1451 15.7417H29.9575C29.5511 16.2887 29.0744 16.7264 28.5274 17.0546C27.996 17.3828 27.4255 17.6251 26.8159 17.7814C26.222 17.9377 25.6124 18.0158 24.9872 18.0158Z" fill="#0D0B1A"/>
<path d="M42.8568 18.0158C41.9502 18.0158 41.0906 17.9377 40.2778 17.7814C39.4651 17.6251 38.7461 17.3906 38.1209 17.078C37.5113 16.7654 37.0268 16.3747 36.6673 15.9058C36.3078 15.4213 36.1281 14.8586 36.1281 14.2178C36.1281 14.1396 36.1281 14.0771 36.1281 14.0302C36.1437 13.9677 36.1593 13.9052 36.175 13.8426H39.7855C39.7855 13.8739 39.7777 13.913 39.762 13.9599C39.762 13.9911 39.762 14.0224 39.762 14.0536C39.7777 14.4288 39.9262 14.7335 40.2075 14.968C40.5045 15.1868 40.8874 15.3509 41.3563 15.4603C41.8408 15.5541 42.3488 15.601 42.8802 15.601C43.396 15.601 43.8961 15.5697 44.3807 15.5072C44.8652 15.4291 45.2638 15.304 45.5764 15.1321C45.889 14.9445 46.0453 14.6788 46.0453 14.335C46.0453 13.9442 45.8577 13.6629 45.4826 13.491C45.1075 13.319 44.5839 13.1862 43.9118 13.0924C43.2397 12.983 42.466 12.858 41.5907 12.7173C40.903 12.6079 40.2544 12.4672 39.6448 12.2953C39.0352 12.1233 38.496 11.9045 38.0271 11.6388C37.5582 11.3575 37.1909 11.0058 36.9252 10.5838C36.6595 10.1462 36.5267 9.60693 36.5267 8.96611C36.5267 8.27839 36.6829 7.69227 36.9955 7.20774C37.3238 6.70759 37.777 6.30902 38.3554 6.01206C38.9337 5.69946 39.6214 5.47282 40.4185 5.33215C41.2156 5.17585 42.0909 5.09771 43.0443 5.09771C43.904 5.09771 44.7011 5.17585 45.4357 5.33215C46.1859 5.47282 46.8424 5.69164 47.4051 5.98861C47.9834 6.26995 48.4288 6.62944 48.7414 7.06707C49.0697 7.50471 49.2338 8.01268 49.2338 8.59099C49.2338 8.65351 49.2338 8.72384 49.2338 8.80199C49.2338 8.86451 49.2259 8.91922 49.2103 8.96611H45.6233V8.82544C45.6233 8.52847 45.4982 8.28621 45.2481 8.09865C45.0137 7.89546 44.6933 7.74697 44.2869 7.6532C43.8961 7.55942 43.4663 7.51253 42.9974 7.51253C42.7786 7.51253 42.5051 7.52816 42.1769 7.55942C41.8643 7.57505 41.5438 7.62194 41.2156 7.70008C40.903 7.77823 40.6373 7.88764 40.4185 8.02831C40.1997 8.15335 40.0903 8.34091 40.0903 8.59099C40.0903 8.90359 40.2622 9.13804 40.6061 9.29434C40.9655 9.45063 41.4266 9.57567 41.9893 9.66945C42.5676 9.7476 43.1928 9.84138 43.8649 9.95079C44.5839 10.0602 45.2872 10.1852 45.9749 10.3259C46.6783 10.4666 47.2957 10.6698 47.8271 10.9355C48.3741 11.2012 48.8118 11.5685 49.14 12.0374C49.4682 12.5063 49.6323 13.1237 49.6323 13.8895C49.6323 14.6554 49.4682 15.304 49.14 15.8355C48.8118 16.3669 48.3507 16.7967 47.7567 17.1249C47.1628 17.4375 46.4516 17.6642 45.6233 17.8048C44.7949 17.9455 43.8727 18.0158 42.8568 18.0158Z" fill="#0D0B1A"/>
<path d="M52.4767 3.50345V0.760406H56.0637V3.50345H52.4767ZM52.4767 17.7345V5.37904H56.0637V17.7345H52.4767Z" fill="#0D0B1A"/>
<path d="M59.5596 17.7345V5.37904H62.4667L62.7246 7.37186H62.9356C63.342 6.82481 63.8109 6.38717 64.3423 6.05895C64.8737 5.73072 65.4442 5.48845 66.0538 5.33215C66.679 5.17585 67.2964 5.09771 67.9059 5.09771C69 5.09771 69.9144 5.27745 70.649 5.63694C71.3992 5.9808 71.9619 6.51221 72.337 7.23119C72.7121 7.95016 72.8997 8.87233 72.8997 9.99768V17.7345H69.3361V10.5604C69.3361 10.0915 69.2736 9.6929 69.1485 9.36467C69.0235 9.03644 68.8359 8.77073 68.5858 8.56754C68.3514 8.36436 68.0622 8.21587 67.7184 8.12209C67.3902 8.02831 67.015 7.98142 66.593 7.98142C65.9678 7.98142 65.3895 8.11428 64.8581 8.37999C64.3423 8.63006 63.9281 8.98955 63.6155 9.45845C63.3029 9.91172 63.1466 10.4431 63.1466 11.0527V17.7345H59.5596Z" fill="#0D0B1A"/>
<path d="M83.3836 18.0158C81.8206 18.0158 80.4764 17.7892 79.3511 17.3359C78.2257 16.867 77.3583 16.1559 76.7487 15.2024C76.1391 14.249 75.8343 13.0377 75.8343 11.5685C75.8343 10.1149 76.1313 8.9114 76.7252 7.95798C77.3192 6.98892 78.171 6.26995 79.2807 5.80105C80.3905 5.33215 81.7112 5.09771 83.2429 5.09771C84.8215 5.09771 86.1501 5.33215 87.2285 5.80105C88.3226 6.26995 89.1432 6.96548 89.6903 7.88764C90.2529 8.80981 90.5343 9.95861 90.5343 11.334V12.3656H79.5621C79.5933 13.0846 79.7653 13.6785 80.0779 14.1474C80.3905 14.6007 80.8281 14.9367 81.3908 15.1556C81.9691 15.3587 82.649 15.4603 83.4305 15.4603C83.8056 15.4603 84.1885 15.4213 84.5793 15.3431C84.97 15.2493 85.3295 15.1243 85.6577 14.968C85.986 14.7961 86.2595 14.5851 86.4783 14.335C86.6971 14.0693 86.8222 13.7645 86.8534 13.4206H90.4639C90.4639 14.1083 90.2998 14.7335 89.9716 15.2962C89.6434 15.8589 89.1666 16.3434 88.5415 16.7498C87.9163 17.1562 87.166 17.4688 86.2907 17.6876C85.4311 17.9064 84.462 18.0158 83.3836 18.0158ZM79.5621 10.1852H86.7596C86.7596 9.76323 86.6737 9.39593 86.5017 9.08333C86.3298 8.7551 86.0876 8.4894 85.775 8.28621C85.4624 8.08302 85.0951 7.92672 84.6731 7.81731C84.2667 7.7079 83.8212 7.6532 83.3367 7.6532C82.6021 7.6532 81.9613 7.75479 81.4142 7.95798C80.8828 8.14554 80.4608 8.43469 80.1482 8.82544C79.8356 9.20056 79.6402 9.65382 79.5621 10.1852Z" fill="#0D0B1A"/>
<path d="M99.5558 18.0158C98.6492 18.0158 97.7896 17.9377 96.9768 17.7814C96.1641 17.6251 95.4451 17.3906 94.8199 17.078C94.2104 16.7654 93.7258 16.3747 93.3663 15.9058C93.0068 15.4213 92.8271 14.8586 92.8271 14.2178C92.8271 14.1396 92.8271 14.0771 92.8271 14.0302C92.8427 13.9677 92.8584 13.9052 92.874 13.8426H96.4845C96.4845 13.8739 96.4767 13.913 96.4611 13.9599C96.4611 13.9911 96.4611 14.0224 96.4611 14.0536C96.4767 14.4288 96.6252 14.7335 96.9065 14.968C97.2035 15.1868 97.5864 15.3509 98.0553 15.4603C98.5398 15.5541 99.0478 15.601 99.5792 15.601C100.095 15.601 100.595 15.5697 101.08 15.5072C101.564 15.4291 101.963 15.304 102.275 15.1321C102.588 14.9445 102.744 14.6788 102.744 14.335C102.744 13.9442 102.557 13.6629 102.182 13.491C101.806 13.319 101.283 13.1862 100.611 13.0924C99.9387 12.983 99.165 12.858 98.2897 12.7173C97.602 12.6079 96.9534 12.4672 96.3438 12.2953C95.7343 12.1233 95.195 11.9045 94.7261 11.6388C94.2572 11.3575 93.8899 11.0058 93.6242 10.5838C93.3585 10.1462 93.2257 9.60693 93.2257 8.96611C93.2257 8.27839 93.382 7.69227 93.6946 7.20774C94.0228 6.70759 94.4761 6.30902 95.0544 6.01206C95.6327 5.69946 96.3204 5.47282 97.1175 5.33215C97.9146 5.17585 98.7899 5.09771 99.7433 5.09771C100.603 5.09771 101.4 5.17585 102.135 5.33215C102.885 5.47282 103.541 5.69164 104.104 5.98861C104.682 6.26995 105.128 6.62944 105.44 7.06707C105.769 7.50471 105.933 8.01268 105.933 8.59099C105.933 8.65351 105.933 8.72384 105.933 8.80199C105.933 8.86451 105.925 8.91922 105.909 8.96611H102.322V8.82544C102.322 8.52847 102.197 8.28621 101.947 8.09865C101.713 7.89546 101.392 7.74697 100.986 7.6532C100.595 7.55942 100.165 7.51253 99.6964 7.51253C99.4776 7.51253 99.2041 7.52816 98.8759 7.55942C98.5633 7.57505 98.2429 7.62194 97.9146 7.70008C97.602 7.77823 97.3363 7.88764 97.1175 8.02831C96.8987 8.15335 96.7893 8.34091 96.7893 8.59099C96.7893 8.90359 96.9612 9.13804 97.3051 9.29434C97.6646 9.45063 98.1256 9.57567 98.6883 9.66945C99.2666 9.7476 99.8918 9.84138 100.564 9.95079C101.283 10.0602 101.986 10.1852 102.674 10.3259C103.377 10.4666 103.995 10.6698 104.526 10.9355C105.073 11.2012 105.511 11.5685 105.839 12.0374C106.167 12.5063 106.331 13.1237 106.331 13.8895C106.331 14.6554 106.167 15.304 105.839 15.8355C105.511 16.3669 105.05 16.7967 104.456 17.1249C103.862 17.4375 103.151 17.6642 102.322 17.8048C101.494 17.9455 100.572 18.0158 99.5558 18.0158Z" fill="#0D0B1A"/>
<path d="M115.224 18.0158C114.318 18.0158 113.458 17.9377 112.646 17.7814C111.833 17.6251 111.114 17.3906 110.489 17.078C109.879 16.7654 109.394 16.3747 109.035 15.9058C108.676 15.4213 108.496 14.8586 108.496 14.2178C108.496 14.1396 108.496 14.0771 108.496 14.0302C108.511 13.9677 108.527 13.9052 108.543 13.8426H112.153C112.153 13.8739 112.145 13.913 112.13 13.9599C112.13 13.9911 112.13 14.0224 112.13 14.0536C112.145 14.4288 112.294 14.7335 112.575 14.968C112.872 15.1868 113.255 15.3509 113.724 15.4603C114.209 15.5541 114.716 15.601 115.248 15.601C115.764 15.601 116.264 15.5697 116.748 15.5072C117.233 15.4291 117.631 15.304 117.944 15.1321C118.257 14.9445 118.413 14.6788 118.413 14.335C118.413 13.9442 118.225 13.6629 117.85 13.491C117.475 13.319 116.952 13.1862 116.279 13.0924C115.607 12.983 114.834 12.858 113.958 12.7173C113.271 12.6079 112.622 12.4672 112.013 12.2953C111.403 12.1233 110.864 11.9045 110.395 11.6388C109.926 11.3575 109.559 11.0058 109.293 10.5838C109.027 10.1462 108.894 9.60693 108.894 8.96611C108.894 8.27839 109.051 7.69227 109.363 7.20774C109.691 6.70759 110.145 6.30902 110.723 6.01206C111.301 5.69946 111.989 5.47282 112.786 5.33215C113.583 5.17585 114.459 5.09771 115.412 5.09771C116.272 5.09771 117.069 5.17585 117.803 5.33215C118.554 5.47282 119.21 5.69164 119.773 5.98861C120.351 6.26995 120.797 6.62944 121.109 7.06707C121.437 7.50471 121.601 8.01268 121.601 8.59099C121.601 8.65351 121.601 8.72384 121.601 8.80199C121.601 8.86451 121.594 8.91922 121.578 8.96611H117.991V8.82544C117.991 8.52847 117.866 8.28621 117.616 8.09865C117.381 7.89546 117.061 7.74697 116.655 7.6532C116.264 7.55942 115.834 7.51253 115.365 7.51253C115.146 7.51253 114.873 7.52816 114.545 7.55942C114.232 7.57505 113.912 7.62194 113.583 7.70008C113.271 7.77823 113.005 7.88764 112.786 8.02831C112.567 8.15335 112.458 8.34091 112.458 8.59099C112.458 8.90359 112.63 9.13804 112.974 9.29434C113.333 9.45063 113.794 9.57567 114.357 9.66945C114.935 9.7476 115.56 9.84138 116.233 9.95079C116.952 10.0602 117.655 10.1852 118.343 10.3259C119.046 10.4666 119.663 10.6698 120.195 10.9355C120.742 11.2012 121.179 11.5685 121.508 12.0374C121.836 12.5063 122 13.1237 122 13.8895C122 14.6554 121.836 15.304 121.508 15.8355C121.179 16.3669 120.718 16.7967 120.124 17.1249C119.53 17.4375 118.819 17.6642 117.991 17.8048C117.163 17.9455 116.24 18.0158 115.224 18.0158Z" fill="#0D0B1A"/>
</g>
</svg>
