<svg width="240" height="228" viewBox="0 0 240 228" fill="none" xmlns="http://www.w3.org/2000/svg">
<g filter="url(#filter0_bd_2816_20871)">
<rect x="19" width="202.121" height="182" fill="white"/>
</g>
<rect x="47.3518" y="109.749" width="4.57286" height="46.6432" fill="#1D63FF"/>
<rect opacity="0.4" x="70.2161" y="96.9448" width="4.57286" height="59.4472" fill="#1D63FF"/>
<rect x="92.1658" y="109.749" width="4.57286" height="46.6432" fill="#1D63FF"/>
<rect opacity="0.4" x="115.03" y="122.553" width="4.57286" height="33.8392" fill="#1D63FF"/>
<rect x="137.895" y="109.749" width="4.57286" height="46.6432" fill="#1D63FF"/>
<rect opacity="0.4" x="160.759" y="86.8845" width="4.57286" height="69.5075" fill="#1D63FF"/>
<rect x="182.708" y="122.553" width="4.57286" height="33.8392" fill="#1D63FF"/>
<path d="M41.9228 42.3518V33.5682H46.5451C47.1938 33.5682 47.7316 33.6792 48.1584 33.9011C48.5852 34.1231 48.9053 34.4389 49.1187 34.8486C49.3321 35.2583 49.4388 35.7406 49.4388 36.2955C49.4388 36.8674 49.3107 37.3753 49.0547 37.8192C48.7986 38.2545 48.423 38.5831 47.9279 38.8051L49.7461 42.3518H47.9279L46.3146 39.0868H43.5873V42.3518H41.9228ZM43.5873 37.6911H46.417C46.8438 37.6911 47.1725 37.5673 47.4029 37.3198C47.6334 37.0723 47.7486 36.7308 47.7486 36.2955C47.7486 36.0138 47.6974 35.779 47.595 35.5913C47.4926 35.3949 47.3432 35.2455 47.1469 35.1431C46.9505 35.0407 46.7072 34.9895 46.417 34.9895H43.5873V37.6911ZM51.1007 42.3518V33.5682H57.9508V34.9895H52.7652V37.1533H57.3875V38.5746H52.7652V40.9305H58.0277V42.3518H51.1007ZM63.5702 42.5054C62.6739 42.5054 61.9057 42.3475 61.2655 42.0317C60.6338 41.7158 60.1473 41.225 59.8058 40.5592C59.4729 39.8849 59.3065 39.0185 59.3065 37.96C59.3065 36.415 59.6821 35.2712 60.4332 34.5285C61.1844 33.7859 62.2301 33.4146 63.5702 33.4146C64.2958 33.4146 64.9488 33.5383 65.5292 33.7859C66.1182 34.0334 66.5834 34.409 66.9249 34.9126C67.2748 35.4077 67.4498 36.0394 67.4498 36.8076H65.7469C65.7469 36.3808 65.653 36.0223 65.4652 35.7321C65.2859 35.4333 65.0341 35.2071 64.7098 35.0535C64.3854 34.8998 64.0141 34.823 63.5958 34.823C63.0154 34.823 62.5331 34.9382 62.149 35.1687C61.7648 35.3907 61.4789 35.7236 61.2911 36.1674C61.1118 36.6113 61.0222 37.1619 61.0222 37.8192V38.1008C61.0222 38.7667 61.1118 39.3215 61.2911 39.7654C61.4789 40.2092 61.7606 40.5421 62.1362 40.7641C62.5203 40.986 63.0068 41.097 63.5958 41.097C64.0397 41.097 64.4281 41.0244 64.761 40.8793C65.0939 40.7257 65.35 40.5037 65.5292 40.2135C65.717 39.9147 65.8109 39.552 65.8109 39.1252H67.4498C67.4498 39.8934 67.2791 40.5293 66.9377 41.033C66.5962 41.5281 66.131 41.8994 65.542 42.1469C64.9616 42.3859 64.3043 42.5054 63.5702 42.5054ZM68.9313 42.3518V33.5682H75.7814V34.9895H70.5958V37.1533H75.2181V38.5746H70.5958V40.9305H75.8583V42.3518H68.9313ZM77.534 42.3518V33.5682H79.1985V42.3518H77.534ZM83.2987 42.3518V35.0023H80.4946V33.5682H87.7801V35.0023H84.9632V42.3518H83.2987ZM87.0782 42.3518L90.4969 33.5682H92.5967L96.0282 42.3518H94.2228L93.5186 40.4824H89.4982L88.7939 42.3518H87.0782ZM90.0231 39.0739H92.9808L92.0974 36.6924C92.0632 36.607 92.0205 36.5003 91.9693 36.3723C91.9266 36.2357 91.8797 36.0906 91.8285 35.937C91.7773 35.7748 91.7261 35.6126 91.6748 35.4504C91.6236 35.2882 91.5767 35.1431 91.534 35.0151H91.47C91.4188 35.1858 91.3547 35.3821 91.2779 35.6041C91.2096 35.826 91.1413 36.0351 91.073 36.2315C91.0048 36.4278 90.9493 36.5814 90.9066 36.6924L90.0231 39.0739ZM98.7193 42.3518L102.138 33.5682H104.238L107.669 42.3518H105.864L105.16 40.4824H101.139L100.435 42.3518H98.7193ZM101.664 39.0739H104.622L103.739 36.6924C103.704 36.607 103.662 36.5003 103.61 36.3723C103.568 36.2357 103.521 36.0906 103.47 35.937C103.418 35.7748 103.367 35.6126 103.316 35.4504C103.265 35.2882 103.218 35.1431 103.175 35.0151H103.111C103.06 35.1858 102.996 35.3821 102.919 35.6041C102.851 35.826 102.782 36.0351 102.714 36.2315C102.646 36.4278 102.59 36.5814 102.548 36.6924L101.664 39.0739ZM108.706 42.3518V33.5682H110.294L114.046 38.7538C114.088 38.8051 114.139 38.8776 114.199 38.9715C114.259 39.0569 114.314 39.1422 114.366 39.2276C114.417 39.313 114.451 39.3812 114.468 39.4325H114.532C114.532 39.313 114.532 39.1977 114.532 39.0868C114.532 38.9758 114.532 38.8648 114.532 38.7538V33.5682H116.133V42.3518H114.558L110.793 37.1277C110.725 37.0253 110.644 36.9015 110.55 36.7564C110.465 36.6028 110.405 36.4961 110.371 36.4363H110.307C110.307 36.5473 110.307 36.6625 110.307 36.782C110.307 36.893 110.307 37.0082 110.307 37.1277V42.3518H108.706ZM121.733 42.5054C120.965 42.5054 120.304 42.3817 119.749 42.1341C119.194 41.8866 118.767 41.511 118.468 41.0074C118.178 40.4952 118.033 39.8593 118.033 39.0996V33.5682H119.698V39.0483C119.698 39.7227 119.873 40.2348 120.222 40.5848C120.581 40.9263 121.085 41.097 121.733 41.097C122.382 41.097 122.886 40.9263 123.244 40.5848C123.611 40.2348 123.795 39.7227 123.795 39.0483V33.5682H125.459V39.0996C125.459 39.8593 125.31 40.4952 125.011 41.0074C124.712 41.511 124.286 41.8866 123.731 42.1341C123.176 42.3817 122.51 42.5054 121.733 42.5054ZM126.253 42.3518L129.672 33.5682H131.772L135.203 42.3518H133.398L132.693 40.4824H128.673L127.969 42.3518H126.253ZM129.198 39.0739H132.156L131.272 36.6924C131.238 36.607 131.195 36.5003 131.144 36.3723C131.101 36.2357 131.055 36.0906 131.003 35.937C130.952 35.7748 130.901 35.6126 130.85 35.4504C130.798 35.2882 130.751 35.1431 130.709 35.0151H130.645C130.594 35.1858 130.53 35.3821 130.453 35.6041C130.384 35.826 130.316 36.0351 130.248 36.2315C130.18 36.4278 130.124 36.5814 130.081 36.6924L129.198 39.0739ZM136.24 42.3518V33.5682H137.904V40.9049H142.309V42.3518H136.24Z" fill="#353345"/>
<path d="M44.4095 60.4944C43.7437 60.4944 43.1889 60.3795 42.745 60.1497C42.3011 59.9119 41.9682 59.5512 41.7463 59.0677C41.5244 58.5842 41.4134 57.9699 41.4134 57.2249C41.4134 56.4719 41.5244 55.8576 41.7463 55.382C41.9682 54.8985 42.3011 54.5418 42.745 54.3119C43.1889 54.0741 43.7437 53.9553 44.4095 53.9553C45.0119 53.9553 45.5153 54.0702 45.9195 54.3C46.3317 54.522 46.6408 54.8668 46.8469 55.3344C47.053 55.8021 47.156 56.4084 47.156 57.1535V57.5815H42.8996C42.9154 57.9699 42.9749 58.2989 43.0779 58.5684C43.181 58.8299 43.3395 59.0281 43.5535 59.1628C43.7754 59.2897 44.0647 59.3531 44.4214 59.3531C44.6037 59.3531 44.7741 59.3293 44.9327 59.2817C45.0912 59.2342 45.2299 59.1628 45.3488 59.0677C45.4677 58.9647 45.5588 58.8379 45.6223 58.6873C45.6936 58.5367 45.7293 58.3623 45.7293 58.1641H47.156C47.156 58.5604 47.0847 58.9052 46.942 59.1985C46.8072 59.4918 46.613 59.7335 46.3594 59.9238C46.1137 60.114 45.8244 60.2567 45.4915 60.3518C45.1586 60.4469 44.7979 60.4944 44.4095 60.4944ZM42.9234 56.559H45.646C45.646 56.2975 45.6143 56.0755 45.5509 55.8932C45.4954 55.7109 45.4122 55.5603 45.3012 55.4414C45.1982 55.3225 45.0714 55.2393 44.9208 55.1918C44.7702 55.1363 44.5998 55.1085 44.4095 55.1085C44.1004 55.1085 43.8388 55.1601 43.6248 55.2631C43.4187 55.3661 43.2602 55.5247 43.1493 55.7387C43.0383 55.9527 42.963 56.2261 42.9234 56.559ZM49.9922 60.3518L47.6737 54.0979H49.1956L50.2062 56.9157C50.2538 57.0505 50.3092 57.2328 50.3727 57.4626C50.444 57.6846 50.5153 57.9184 50.5867 58.1641C50.658 58.4019 50.7174 58.6199 50.765 58.818H50.8245C50.872 58.6357 50.9275 58.4257 50.9909 58.1879C51.0543 57.9501 51.1177 57.7163 51.1811 57.4864C51.2525 57.2566 51.3159 57.0663 51.3714 56.9157L52.3701 54.0979H53.8444L51.514 60.3518H49.9922ZM57.4623 60.4944C56.7806 60.4944 56.2099 60.3795 55.7502 60.1497C55.2905 59.9119 54.9457 59.5512 54.7158 59.0677C54.486 58.5842 54.371 57.9699 54.371 57.2249C54.371 56.4719 54.486 55.8576 54.7158 55.382C54.9457 54.8985 55.2905 54.5418 55.7502 54.3119C56.2099 54.0741 56.7806 53.9553 57.4623 53.9553C58.1519 53.9553 58.7226 54.0741 59.1744 54.3119C59.6341 54.5418 59.9789 54.8985 60.2088 55.382C60.4386 55.8576 60.5535 56.4719 60.5535 57.2249C60.5535 57.9699 60.4386 58.5842 60.2088 59.0677C59.9789 59.5512 59.6341 59.9119 59.1744 60.1497C58.7226 60.3795 58.1519 60.4944 57.4623 60.4944ZM57.4623 59.3055C57.8428 59.3055 58.1479 59.2342 58.3778 59.0915C58.6156 58.9409 58.786 58.719 58.889 58.4257C59 58.1245 59.0555 57.752 59.0555 57.3081V57.1416C59.0555 56.6978 59 56.3292 58.889 56.0359C58.786 55.7347 58.6156 55.5128 58.3778 55.3701C58.1479 55.2195 57.8428 55.1442 57.4623 55.1442C57.0818 55.1442 56.7727 55.2195 56.5349 55.3701C56.3051 55.5128 56.1346 55.7347 56.0237 56.0359C55.9206 56.3292 55.8691 56.6978 55.8691 57.1416V57.3081C55.8691 57.752 55.9206 58.1245 56.0237 58.4257C56.1346 58.719 56.3051 58.9409 56.5349 59.0915C56.7727 59.2342 57.0818 59.3055 57.4623 59.3055ZM61.786 60.3518V51.7557H63.2365V60.3518H61.786ZM66.7671 60.4944C66.1647 60.4944 65.6733 60.332 65.2928 60.007C64.9203 59.6741 64.734 59.1113 64.734 58.3187V54.0979H66.1845V58.0571C66.1845 58.279 66.2083 58.4653 66.2558 58.6159C66.3113 58.7586 66.3866 58.8775 66.4817 58.9726C66.5848 59.0598 66.7076 59.1232 66.8503 59.1628C66.993 59.2025 67.1515 59.2223 67.3259 59.2223C67.5875 59.2223 67.8213 59.1589 68.0274 59.032C68.2414 58.9052 68.4078 58.7308 68.5267 58.5089C68.6535 58.279 68.717 58.0214 68.717 57.7361V54.0979H70.1675V60.3518H68.9666L68.8477 59.5195H68.7645C68.6218 59.7097 68.4514 59.8802 68.2533 60.0308C68.063 60.1734 67.8411 60.2844 67.5875 60.3637C67.3417 60.4509 67.0683 60.4944 66.7671 60.4944ZM74.317 60.4944C73.667 60.4944 73.1241 60.3795 72.6881 60.1497C72.2601 59.9119 71.9391 59.5512 71.7251 59.0677C71.5111 58.5842 71.4041 57.9699 71.4041 57.2249C71.4041 56.4719 71.5111 55.8576 71.7251 55.382C71.947 54.8985 72.272 54.5418 72.7 54.3119C73.136 54.0741 73.6749 53.9553 74.317 53.9553C74.7371 53.9553 75.1096 54.0068 75.4346 54.1098C75.7596 54.2129 76.037 54.3714 76.2668 54.5854C76.5046 54.7915 76.683 55.0491 76.8019 55.3582C76.9208 55.6673 76.9802 56.028 76.9802 56.4401H75.5059C75.5059 56.1469 75.4623 55.9051 75.3751 55.7149C75.2879 55.5247 75.1532 55.382 74.9709 55.2869C74.7965 55.1838 74.5706 55.1323 74.2932 55.1323C73.9682 55.1323 73.7027 55.2076 73.4966 55.3582C73.2905 55.5088 73.136 55.7347 73.0329 56.0359C72.9378 56.3292 72.8902 56.7017 72.8902 57.1535V57.3081C72.8902 57.752 72.9378 58.1245 73.0329 58.4257C73.136 58.7269 73.2945 58.9528 73.5085 59.1034C73.7225 59.2461 74.0039 59.3174 74.3526 59.3174C74.6221 59.3174 74.8441 59.2698 75.0185 59.1747C75.2008 59.0717 75.3395 58.9211 75.4346 58.7229C75.5297 58.5248 75.5773 58.287 75.5773 58.0096H76.9802C76.9802 58.3979 76.9208 58.7467 76.8019 59.0558C76.683 59.365 76.5086 59.6265 76.2787 59.8405C76.0489 60.0545 75.7675 60.217 75.4346 60.328C75.1096 60.439 74.7371 60.4944 74.317 60.4944ZM74.1862 62.5157C73.988 62.5157 73.782 62.5077 73.5679 62.4919C73.3539 62.476 73.1597 62.4522 72.9854 62.4205V61.838H74.0792C74.2377 61.838 74.3606 61.8181 74.4478 61.7785C74.5429 61.7389 74.5904 61.6636 74.5904 61.5526C74.5904 61.4575 74.5548 61.3862 74.4834 61.3386C74.42 61.291 74.2932 61.2673 74.103 61.2673H73.5798L73.7463 60.221H74.6737L74.6023 60.756C74.8084 60.7639 74.9986 60.7956 75.173 60.8511C75.3474 60.9145 75.4861 61.0017 75.5891 61.1127C75.6922 61.2237 75.7437 61.3703 75.7437 61.5526C75.7437 61.7508 75.6922 61.9133 75.5891 62.0401C75.4861 62.1669 75.3553 62.262 75.1968 62.3254C75.0383 62.3968 74.8679 62.4443 74.6855 62.4681C74.5112 62.4998 74.3447 62.5157 74.1862 62.5157ZM79.8203 60.4944C79.6459 60.4944 79.4438 60.4707 79.2139 60.4231C78.992 60.3835 78.774 60.3042 78.56 60.1853C78.3539 60.0664 78.1835 59.8921 78.0488 59.6622C77.914 59.4244 77.8467 59.1153 77.8467 58.7348C77.8467 58.3068 77.9418 57.9541 78.132 57.6767C78.3222 57.3913 78.5878 57.1694 78.9286 57.0108C79.2774 56.8444 79.6895 56.7295 80.1651 56.666C80.6486 56.5947 81.1757 56.559 81.7464 56.559V56.0478C81.7464 55.8655 81.7187 55.703 81.6632 55.5603C81.6077 55.4177 81.5046 55.3067 81.354 55.2274C81.2114 55.1402 80.9934 55.0966 80.7001 55.0966C80.4068 55.0966 80.177 55.1323 80.0105 55.2036C79.8441 55.275 79.7292 55.3622 79.6657 55.4652C79.6023 55.5683 79.5706 55.6753 79.5706 55.7862V55.9527H78.1677C78.1597 55.913 78.1558 55.8734 78.1558 55.8338C78.1558 55.7942 78.1558 55.7466 78.1558 55.6911C78.1558 55.3344 78.2628 55.0253 78.4768 54.7637C78.6908 54.5022 78.988 54.304 79.3685 54.1693C79.749 54.0266 80.1889 53.9553 80.6882 53.9553C81.2589 53.9553 81.7266 54.0345 82.0912 54.193C82.4637 54.3516 82.7411 54.5775 82.9234 54.8707C83.1058 55.164 83.1969 55.5207 83.1969 55.9408V58.8894C83.1969 59.04 83.2405 59.147 83.3277 59.2104C83.4149 59.2738 83.51 59.3055 83.613 59.3055H83.9935V60.3042C83.9142 60.3359 83.7993 60.3716 83.6487 60.4112C83.4981 60.4588 83.3118 60.4826 83.0899 60.4826C82.8838 60.4826 82.6975 60.4469 82.5311 60.3756C82.3726 60.3121 82.2378 60.217 82.1269 60.0902C82.0159 59.9634 81.9366 59.8128 81.8891 59.6384H81.8177C81.683 59.8049 81.5205 59.9555 81.3303 60.0902C81.148 60.217 80.93 60.3161 80.6763 60.3874C80.4306 60.4588 80.1453 60.4944 79.8203 60.4944ZM80.2602 59.3055C80.498 59.3055 80.708 59.2698 80.8904 59.1985C81.0806 59.1272 81.2351 59.0281 81.354 58.9013C81.4809 58.7744 81.576 58.6199 81.6394 58.4376C81.7107 58.2553 81.7464 58.0571 81.7464 57.8431V57.5578C81.3104 57.5578 80.9062 57.5855 80.5337 57.641C80.1691 57.6965 79.8758 57.7995 79.6539 57.9501C79.4398 58.1007 79.3328 58.3147 79.3328 58.5921C79.3328 58.7348 79.3645 58.8616 79.428 58.9726C79.4993 59.0756 79.6023 59.1589 79.7371 59.2223C79.8798 59.2778 80.0541 59.3055 80.2602 59.3055ZM78.7027 53.1468C78.7027 52.8931 78.7384 52.6633 78.8097 52.4572C78.889 52.2432 79.0118 52.0728 79.1783 51.9459C79.3447 51.8191 79.5587 51.7557 79.8203 51.7557C80.0264 51.7557 80.2166 51.7914 80.391 51.8627C80.5733 51.9261 80.7516 51.9935 80.926 52.0648C81.1004 52.1362 81.2787 52.1718 81.461 52.1718C81.572 52.1718 81.6592 52.1441 81.7226 52.0886C81.794 52.0252 81.8375 51.9142 81.8534 51.7557H82.6619C82.6619 52.0014 82.6222 52.2313 82.543 52.4453C82.4716 52.6514 82.3528 52.8218 82.1863 52.9565C82.0278 53.0834 81.8138 53.1468 81.5443 53.1468C81.3461 53.1468 81.1559 53.1111 80.9736 53.0398C80.7913 52.9684 80.6129 52.8971 80.4386 52.8258C80.2721 52.7544 80.0977 52.7188 79.9154 52.7188C79.8124 52.7188 79.7252 52.7505 79.6539 52.8139C79.5825 52.8773 79.5389 52.9882 79.5231 53.1468H78.7027ZM87.6039 60.4944C86.9222 60.4944 86.3515 60.3795 85.8918 60.1497C85.4321 59.9119 85.0873 59.5512 84.8574 59.0677C84.6276 58.5842 84.5126 57.9699 84.5126 57.2249C84.5126 56.4719 84.6276 55.8576 84.8574 55.382C85.0873 54.8985 85.4321 54.5418 85.8918 54.3119C86.3515 54.0741 86.9222 53.9553 87.6039 53.9553C88.2935 53.9553 88.8642 54.0741 89.316 54.3119C89.7757 54.5418 90.1205 54.8985 90.3504 55.382C90.5802 55.8576 90.6952 56.4719 90.6952 57.2249C90.6952 57.9699 90.5802 58.5842 90.3504 59.0677C90.1205 59.5512 89.7757 59.9119 89.316 60.1497C88.8642 60.3795 88.2935 60.4944 87.6039 60.4944ZM87.6039 59.3055C87.9844 59.3055 88.2895 59.2342 88.5194 59.0915C88.7572 58.9409 88.9276 58.719 89.0306 58.4257C89.1416 58.1245 89.1971 57.752 89.1971 57.3081V57.1416C89.1971 56.6978 89.1416 56.3292 89.0306 56.0359C88.9276 55.7347 88.7572 55.5128 88.5194 55.3701C88.2895 55.2195 87.9844 55.1442 87.6039 55.1442C87.2234 55.1442 86.9143 55.2195 86.6765 55.3701C86.4467 55.5128 86.2762 55.7347 86.1653 56.0359C86.0622 56.3292 86.0107 56.6978 86.0107 57.1416V57.3081C86.0107 57.752 86.0622 58.1245 86.1653 58.4257C86.2762 58.719 86.4467 58.9409 86.6765 59.0915C86.9143 59.2342 87.2234 59.3055 87.6039 59.3055Z" fill="#4C4A5E"/>
<g clip-path="url(#clip0_2816_20871)">
<path opacity="0.4" d="M194.903 43.3661C194.903 49.0906 190.263 53.7312 184.538 53.7312C178.813 53.7312 174.173 49.0906 174.173 43.3661C174.173 37.6416 178.813 33.0009 184.538 33.0009C190.263 33.0009 194.903 37.6416 194.903 43.3661Z" fill="#1D63FF"/>
<path fill-rule="evenodd" clip-rule="evenodd" d="M178.668 40.0876C178.289 40.4671 178.289 41.0823 178.668 41.4618L183.851 46.6444C184.033 46.8266 184.28 46.929 184.538 46.929C184.796 46.929 185.043 46.8267 185.225 46.6444L190.408 41.4618C190.787 41.0823 190.787 40.4671 190.408 40.0876C190.028 39.7081 189.413 39.7081 189.033 40.0876L185.51 43.6113L185.51 27.8183C185.51 27.2816 185.074 26.8465 184.538 26.8465C184.001 26.8465 183.566 27.2816 183.566 27.8183L183.566 43.6113L180.042 40.0876C179.663 39.7081 179.048 39.7081 178.668 40.0876Z" fill="#1D63FF"/>
</g>
<defs>
<filter id="filter0_bd_2816_20871" x="-2.94975" y="-21.9497" width="246.02" height="249.678" filterUnits="userSpaceOnUse" color-interpolation-filters="sRGB">
<feFlood flood-opacity="0" result="BackgroundImageFix"/>
<feGaussianBlur in="BackgroundImageFix" stdDeviation="10.9749"/>
<feComposite in2="SourceAlpha" operator="in" result="effect1_backgroundBlur_2816_20871"/>
<feColorMatrix in="SourceAlpha" type="matrix" values="0 0 0 0 0 0 0 0 0 0 0 0 0 0 0 0 0 0 127 0" result="hardAlpha"/>
<feMorphology radius="18.2915" operator="erode" in="SourceAlpha" result="effect2_dropShadow_2816_20871"/>
<feOffset dy="27.4372"/>
<feGaussianBlur stdDeviation="18.2915"/>
<feComposite in2="hardAlpha" operator="out"/>
<feColorMatrix type="matrix" values="0 0 0 0 0.289062 0 0 0 0 0.300739 0 0 0 0 0.375 0 0 0 0.2 0"/>
<feBlend mode="normal" in2="effect1_backgroundBlur_2816_20871" result="effect2_dropShadow_2816_20871"/>
<feBlend mode="normal" in="SourceGraphic" in2="effect2_dropShadow_2816_20871" result="shape"/>
</filter>
<clipPath id="clip0_2816_20871">
<rect width="31.0955" height="31.0955" fill="white" transform="translate(168.99 26.5226)"/>
</clipPath>
</defs>
</svg>
