<svg width="64" height="17" viewBox="0 0 64 17" fill="none" xmlns="http://www.w3.org/2000/svg">
<g id="Smart">
<path d="M6.89438 16.6459C6.0191 16.6459 5.17509 16.5599 4.36233 16.388C3.56521 16.216 2.85405 15.9425 2.22885 15.5674C1.60365 15.1766 1.1035 14.6765 0.72838 14.0669C0.368892 13.4573 0.189148 12.7071 0.189148 11.8162C0.189148 11.7381 0.189148 11.6599 0.189148 11.5818C0.204778 11.5036 0.212593 11.4255 0.212593 11.3473H2.4633C2.4633 11.3942 2.45548 11.4724 2.43985 11.5818C2.43985 11.6755 2.43985 11.7615 2.43985 11.8397C2.43985 12.4648 2.62741 12.9963 3.00253 13.4339C3.37765 13.8715 3.89344 14.1998 4.54989 14.4186C5.22198 14.6218 5.98003 14.7234 6.82404 14.7234C7.19916 14.7234 7.58991 14.6999 7.99629 14.653C8.41829 14.6061 8.81686 14.528 9.19197 14.4186C9.58272 14.2935 9.92658 14.1372 10.2235 13.9497C10.5361 13.7465 10.7784 13.5042 10.9503 13.2229C11.1379 12.9259 11.2317 12.5664 11.2317 12.1444C11.2317 11.613 11.0754 11.1754 10.7628 10.8315C10.4658 10.472 10.0672 10.1829 9.56709 9.96407C9.06694 9.72962 8.49644 9.52643 7.85562 9.3545C7.23042 9.16694 6.58178 8.9872 5.90969 8.81527C5.23761 8.64334 4.58115 8.44796 3.94033 8.22915C3.31513 7.9947 2.75245 7.71336 2.2523 7.38513C1.75214 7.04127 1.34576 6.61926 1.03316 6.11911C0.736195 5.61895 0.587711 5.00939 0.587711 4.29041C0.587711 3.61832 0.720565 3.01657 0.986273 2.48515C1.26761 1.95374 1.67399 1.50829 2.20541 1.1488C2.75245 0.77368 3.42454 0.492341 4.22166 0.304782C5.01879 0.101594 5.93314 0 6.96471 0C7.80873 0 8.59022 0.093779 9.3092 0.281337C10.0438 0.453267 10.6846 0.72679 11.2317 1.10191C11.7944 1.4614 12.232 1.92248 12.5446 2.48515C12.8572 3.04783 13.0135 3.72773 13.0135 4.52486V4.8062H10.8097V4.45452C10.8097 3.92311 10.6456 3.46984 10.3173 3.09472C9.9891 2.7196 9.53583 2.43045 8.95753 2.22726C8.39485 2.02407 7.75402 1.92248 7.03505 1.92248C6.09725 1.92248 5.31576 2.01626 4.69056 2.20382C4.06537 2.37575 3.59647 2.63364 3.28387 2.9775C2.9869 3.30572 2.83842 3.68084 2.83842 4.10285C2.83842 4.58738 2.9869 4.99375 3.28387 5.32198C3.59647 5.65021 4.00285 5.92373 4.503 6.14255C5.00316 6.34574 5.57365 6.5333 6.21448 6.70523C6.8553 6.87716 7.50395 7.0569 8.1604 7.24446C8.83249 7.41639 9.48113 7.61958 10.1063 7.85403C10.7472 8.07285 11.3176 8.35418 11.8178 8.69804C12.3336 9.02627 12.74 9.44828 13.0369 9.96407C13.3339 10.4642 13.4824 11.0816 13.4824 11.8162C13.4824 12.9572 13.201 13.8872 12.6384 14.6061C12.0757 15.3095 11.302 15.8253 10.3173 16.1535C9.33265 16.4817 8.19166 16.6459 6.89438 16.6459Z" fill="#1E1C2D"/>
<path d="M16.7143 16.3645V4.03252H18.3789L18.5664 5.88466H18.7306C19.0431 5.3845 19.3948 4.97812 19.7856 4.66553C20.1763 4.35293 20.6061 4.12629 21.075 3.98563C21.5439 3.82933 22.0519 3.75118 22.599 3.75118C23.3961 3.75118 24.0838 3.91529 24.6621 4.24352C25.2404 4.55612 25.6702 5.10316 25.9516 5.88466H26.0922C26.3892 5.3845 26.7331 4.98594 27.1238 4.68897C27.5146 4.37637 27.9522 4.14192 28.4367 3.98563C28.9213 3.82933 29.437 3.75118 29.9841 3.75118C30.7343 3.75118 31.3908 3.88403 31.9535 4.14974C32.5161 4.39982 32.9538 4.82183 33.2664 5.41576C33.5946 5.99407 33.7587 6.77556 33.7587 7.76025V16.3645H31.6956V8.08848C31.6956 7.58832 31.633 7.17413 31.508 6.8459C31.3986 6.51767 31.2345 6.26759 31.0157 6.09566C30.7968 5.9081 30.5389 5.77525 30.242 5.6971C29.9606 5.61895 29.6559 5.57988 29.3276 5.57988C28.7806 5.57988 28.2726 5.72055 27.8037 6.00188C27.3504 6.28322 26.9831 6.6896 26.7018 7.22102C26.4205 7.75243 26.2798 8.38544 26.2798 9.12005V16.3645H24.2167V8.08848C24.2167 7.58832 24.1541 7.17413 24.0291 6.8459C23.9041 6.51767 23.7399 6.26759 23.5368 6.09566C23.3336 5.9081 23.0835 5.77525 22.7865 5.6971C22.5052 5.61895 22.2082 5.57988 21.8956 5.57988C21.3329 5.57988 20.8093 5.72055 20.3248 6.00188C19.8559 6.28322 19.4808 6.6896 19.1995 7.22102C18.9181 7.75243 18.7774 8.38544 18.7774 9.12005V16.3645H16.7143Z" fill="#1E1C2D"/>
<path d="M40.3315 16.6459C39.8782 16.6459 39.425 16.5911 38.9717 16.4817C38.5184 16.3723 38.0964 16.1926 37.7057 15.9425C37.3149 15.6924 37.0023 15.3486 36.7679 14.9109C36.5334 14.4577 36.4162 13.895 36.4162 13.2229C36.4162 12.3789 36.6194 11.6834 37.0258 11.1363C37.4322 10.5893 37.9948 10.1673 38.7138 9.87029C39.4484 9.55769 40.3159 9.34668 41.3162 9.23727C42.3165 9.11224 43.4028 9.04972 44.575 9.04972V7.64302C44.575 7.18976 44.4969 6.79901 44.3406 6.47078C44.1843 6.14255 43.9029 5.89247 43.4966 5.72055C43.1058 5.53299 42.5431 5.43921 41.8085 5.43921C41.1052 5.43921 40.5425 5.53299 40.1205 5.72055C39.7141 5.89247 39.425 6.11911 39.253 6.40045C39.0967 6.68178 39.0186 6.99438 39.0186 7.33824V7.68991H37.0258C37.0102 7.61176 37.0023 7.53361 37.0023 7.45546C37.0023 7.37732 37.0023 7.28354 37.0023 7.17413C37.0023 6.42389 37.2055 5.7987 37.6119 5.29854C38.0339 4.78275 38.62 4.39982 39.3703 4.14974C40.1205 3.88403 40.9802 3.75118 41.9492 3.75118C42.9808 3.75118 43.8404 3.89966 44.5281 4.19663C45.2315 4.4936 45.7551 4.91561 46.0989 5.46265C46.4584 6.0097 46.6382 6.66616 46.6382 7.43202V14.1138C46.6382 14.4108 46.7085 14.6218 46.8492 14.7468C46.9899 14.8562 47.1618 14.9109 47.365 14.9109H48.2793V16.2707C48.0605 16.3645 47.8182 16.4427 47.5525 16.5052C47.2868 16.5833 46.982 16.6224 46.6382 16.6224C46.2318 16.6224 45.8958 16.5364 45.6301 16.3645C45.3643 16.2082 45.1612 15.9894 45.0205 15.7081C44.8798 15.4111 44.786 15.0829 44.7391 14.7234H44.575C44.2937 15.1141 43.9342 15.458 43.4966 15.7549C43.0746 16.0363 42.5979 16.2551 42.0664 16.4114C41.535 16.5677 40.9567 16.6459 40.3315 16.6459ZM40.8473 14.9109C41.3475 14.9109 41.8164 14.8328 42.254 14.6765C42.7073 14.5202 43.1058 14.3014 43.4497 14.02C43.7935 13.7231 44.0671 13.3714 44.2702 12.965C44.4734 12.5586 44.575 12.1132 44.575 11.6287V10.5971C43.309 10.5971 42.2305 10.6674 41.3396 10.8081C40.4487 10.9487 39.761 11.1988 39.2765 11.5583C38.8076 11.9178 38.5731 12.4258 38.5731 13.0822C38.5731 13.5042 38.6669 13.8481 38.8545 14.1138C39.042 14.3795 39.3078 14.5827 39.6516 14.7234C39.9955 14.8484 40.394 14.9109 40.8473 14.9109Z" fill="#1E1C2D"/>
<path d="M50.3641 16.3645V4.03252H52.0287L52.2162 6.07222H52.3803C52.5054 5.68147 52.6773 5.31417 52.8961 4.97031C53.1149 4.61082 53.4119 4.32167 53.787 4.10285C54.1622 3.8684 54.6232 3.75118 55.1703 3.75118C55.4047 3.75118 55.6157 3.77462 55.8033 3.82151C56.0065 3.85277 56.155 3.89185 56.2487 3.93874V5.83777H55.4751C54.9436 5.83777 54.4826 5.93155 54.0918 6.11911C53.7167 6.29104 53.4041 6.54112 53.154 6.86934C52.9039 7.19757 52.7164 7.58832 52.5913 8.04159C52.4819 8.49485 52.4272 8.97938 52.4272 9.49517V16.3645H50.3641Z" fill="#1E1C2D"/>
<path d="M61.3839 16.6459C60.7431 16.6459 60.2429 16.5286 59.8834 16.2942C59.5239 16.0441 59.266 15.7237 59.1097 15.3329C58.9534 14.9266 58.8753 14.4967 58.8753 14.0435V5.76744H57.281V4.03252H58.9222L59.2973 0.586121H60.9384V4.03252H63.2595V5.76744H60.9384V13.7387C60.9384 14.1294 61.0088 14.4264 61.1494 14.6296C61.2901 14.8172 61.5558 14.9109 61.9466 14.9109H63.2595V16.2707C63.1032 16.3489 62.9156 16.4114 62.6968 16.4583C62.478 16.5052 62.2514 16.5443 62.0169 16.5755C61.7981 16.6224 61.5871 16.6459 61.3839 16.6459Z" fill="#1E1C2D"/>
</g>
</svg>
